<svg width="170.02mm" height="170.02mm" version="1.1" viewBox="0 0 170.02 170.02" xmlns="http://www.w3.org/2000/svg">
 <g transform="translate(105.15 175.62)">
  <path d="m64.875-90.61a85.011 85.011 0 0 1-85.011 85.011 85.011 85.011 0 0 1-85.011-85.011 85.011 85.011 0 0 1 85.011-85.011 85.011 85.011 0 0 1 85.011 85.011z" stroke-width="1.0393"/>
  <path d="m-30.073-25.991c2.3935 1.9178 8.2837 3.7357 10.862-1.1323-5.0078-18.955-10.619-36.098-18.929-52.352 22.223-16.662 16.04-39.202-2.1659-46.387-10.987-4.3357-30.496-0.17285-45.05 0.86897 21.321 30.496-6.5194 61.886 40.79 49.555-3.9939-13.628-8.8828-21.992-14.521-31.099 14.987 12.908 33.472 68.335 29.014 80.545z" fill="#99ff38" stroke="#000" stroke-linecap="square" stroke-width=".47446" style="paint-order:stroke fill markers"/>
  <path d="m-23.822-47.214 5.4972 19.258c4.1051-33.473 9.9791-72.808 30.206-93.632-8.3037 12.874-13.882 22.991-18.184 43.715 16.101 4.756 33.309-1.3287 42.043-13.131 10.478-14.159-11.443-26.742 0.32026-52.842-25.485 0.90006-52.668-1.4736-68.517 20.811 10.702 9.8928 12.34 18.837 6.8855 31.391 1.8497 3.567 4.7098 7.1685 11.517 10.322z" fill="#5a912c" stroke="#000" stroke-width=".47446" style="paint-order:markers stroke fill"/>
 </g>
</svg>
