<svg width="810.78mm" height="171.08mm" version="1.1" viewBox="0 0 810.78 171.08" xmlns="http://www.w3.org/2000/svg">
 <g transform="translate(157.47 -27.721)">
  <g transform="translate(124.31 -15.693)">
   <g fill="#fff">
    <path d="m-111.24 128.97a85.011 85.011 0 0 1-85.011 85.011 85.011 85.011 0 0 1-85.011-85.011 85.011 85.011 0 0 1 85.011-85.011 85.011 85.011 0 0 1 85.011 85.011z" color="#000000" stroke-width="1.0393" style="-inkscape-stroke:none"/>
    <path d="m-196.25 43.438c-47.231-5e-6 -85.531 38.298-85.531 85.529 0 47.231 38.3 85.531 85.531 85.531 47.231 0 85.529-38.3 85.529-85.531-1e-5 -47.231-38.298-85.529-85.529-85.529zm0 1.0391c46.669 1e-6 84.49 37.821 84.49 84.49 0 46.669-37.821 84.492-84.49 84.492-46.669 1e-5 -84.49-37.823-84.49-84.492 0-46.669 37.821-84.49 84.49-84.49z" color="#000000" style="-inkscape-stroke:none"/>
   </g>
   <path d="m246.26 43.414v170.52h16.68v-70.359l92.463 69.957 10.064-13.303-91.658-69.348 85.162-74.785-11.008-12.533-85.023 74.666v-74.811z" color="#000000" fill="#fff" style="-inkscape-stroke:none"/>
   <path d="m-206.19 193.59c2.3935 1.9178 8.2837 3.7357 10.862-1.1323-5.0078-18.955-10.619-36.098-18.929-52.352 22.223-16.662 16.04-39.202-2.1659-46.387-10.987-4.3357-30.496-0.17285-45.05 0.86897 21.321 30.496-6.5194 61.886 40.79 49.555-3.9939-13.628-8.8828-21.992-14.521-31.099 14.987 12.908 33.472 68.335 29.014 80.545z" fill="#99ff38" style="paint-order:stroke fill markers"/>
   <path d="m-199.94 172.36 5.4972 19.258c4.1051-33.473 9.9791-72.808 30.206-93.632-8.3037 12.874-13.882 22.991-18.184 43.715 16.101 4.756 33.309-1.3287 42.043-13.131 10.478-14.159-11.443-26.742 0.32026-52.842-25.485 0.90006-52.668-1.4736-68.517 20.811 10.702 9.8928 12.34 18.837 6.8855 31.391 1.8497 3.567 4.7098 7.1685 11.517 10.322z" fill="#5a912c" style="paint-order:markers stroke fill"/>
   <g fill="#fff">
    <path d="m-14.873 43.656c-47.028-3e-6 -85.33 38.304-85.33 85.332 0 23.514 9.5597 44.905 24.992 60.338 15.432 15.433 36.824 24.994 60.338 24.994 23.514 0 44.907-9.5616 60.34-24.994 15.432-15.432 24.992-36.824 24.992-60.338h-16.682c0 19.007-7.6727 36.11-20.105 48.543-12.433 12.433-29.538 20.107-48.545 20.107-15.991 0-30.597-5.481-42.246-14.609l108.48-108.48-5.8965-5.8965c-15.432-15.432-36.826-24.994-60.34-24.994zm0 16.682c15.991 0 30.597 5.4812 42.246 14.609l-96.287 96.287c-9.1282-11.649-14.609-26.255-14.609-42.246 0-38.014 30.637-68.65 68.65-68.65z" color="#000000" style="-inkscape-stroke:none"/>
    <path d="m165.35 43.656c-47.028-3e-6 -85.332 38.304-85.332 85.332 0 23.514 9.5597 44.905 24.992 60.338 15.433 15.432 36.826 24.994 60.34 24.994 23.514 0 44.905-9.5616 60.338-24.994l-11.795-11.795c-12.433 12.433-29.536 20.107-48.543 20.107s-36.112-7.6746-48.545-20.107c-12.433-12.433-20.107-29.536-20.107-48.543 0-38.014 30.639-68.65 68.652-68.65 19.007 0 36.11 7.6747 48.543 20.107l11.795-11.795c-15.432-15.433-36.824-24.994-60.338-24.994z" color="#000000" style="-inkscape-stroke:none"/>
    <path d="m443.67 43.656c-47.028-3e-6 -85.332 38.304-85.332 85.332 0 23.514 9.5616 44.905 24.994 60.338 15.433 15.432 36.824 24.994 60.338 24.994 23.514 0 44.905-9.5616 60.338-24.994 15.661-15.661 24.992-38.256 24.992-60.338 0-22.094-9.3694-44.715-24.992-60.338-15.394-15.394-36.812-24.994-60.338-24.994zm0 16.682c18.995 0 36.158 7.7229 48.543 20.107 12.155 12.155 20.107 31.353 20.107 48.543 0 17.203-7.903 36.339-20.107 48.543-12.433 12.433-29.536 20.107-48.543 20.107-19.007 0-36.11-7.6746-48.543-20.107-12.433-12.433-20.107-29.536-20.107-48.543 0-38.014 30.637-68.65 68.65-68.65z" color="#000000" style="-inkscape-stroke:none"/>
   </g>
  </g>
 </g>
</svg>
