<svg width="810.26mm" height="170.91mm" version="1.1" viewBox="0 0 810.26 170.91" xmlns="http://www.w3.org/2000/svg">
 <g transform="translate(264.18 -25.293)">
  <g transform="translate(17.08 -18.121)">
   <path d="m246.26 43.414v170.52h16.68v-70.359l92.463 69.957 10.064-13.303-91.658-69.348 85.162-74.785-11.008-12.533-85.023 74.666v-74.811zm-261.14 0.24219c-47.028-3e-6 -85.33 38.304-85.33 85.332 0 23.514 9.5597 44.905 24.992 60.338 15.432 15.433 36.824 24.994 60.338 24.994 23.514 0 44.907-9.5616 60.34-24.994 15.432-15.432 24.992-36.824 24.992-60.338h-16.682c0 19.007-7.6727 36.11-20.105 48.543-12.433 12.433-29.538 20.107-48.545 20.107-15.991 0-30.597-5.481-42.246-14.609l108.48-108.48-5.8965-5.8965c-15.432-15.432-36.826-24.994-60.34-24.994zm180.22 0c-47.028-3e-6 -85.332 38.304-85.332 85.332 0 23.514 9.5597 44.905 24.992 60.338 15.433 15.432 36.826 24.994 60.34 24.994 23.514 0 44.905-9.5616 60.338-24.994l-11.795-11.795c-12.433 12.433-29.536 20.107-48.543 20.107s-36.112-7.6746-48.545-20.107c-12.433-12.433-20.107-29.536-20.107-48.543 0-38.014 30.639-68.65 68.652-68.65 19.007 0 36.11 7.6747 48.543 20.107l11.795-11.795c-15.432-15.433-36.824-24.994-60.338-24.994zm278.32 0c-47.028-3e-6 -85.332 38.304-85.332 85.332 0 23.514 9.5616 44.905 24.994 60.338 15.433 15.432 36.824 24.994 60.338 24.994 23.514 0 44.905-9.5616 60.338-24.994 15.661-15.661 24.992-38.256 24.992-60.338 0-22.094-9.3694-44.715-24.992-60.338-15.394-15.394-36.812-24.994-60.338-24.994zm-458.54 16.682c15.991 0 30.597 5.4812 42.246 14.609l-96.287 96.287c-9.1282-11.649-14.609-26.255-14.609-42.246 0-38.014 30.637-68.65 68.65-68.65zm458.54 0c18.995 0 36.158 7.7229 48.543 20.107 12.155 12.155 20.107 31.353 20.107 48.543 0 17.203-7.903 36.339-20.107 48.543-12.433 12.433-29.536 20.107-48.543 20.107-19.007 0-36.11-7.6746-48.543-20.107-12.433-12.433-20.107-29.536-20.107-48.543 0-38.014 30.637-68.65 68.65-68.65zm-639.92-16.381a85.011 85.011 0 0 0-85.01 85.01 85.011 85.011 0 0 0 85.01 85.011 85.011 85.011 0 0 0 85.011-85.011 85.011 85.011 0 0 0-85.011-85.01zm56.196 31.775c-11.763 26.1 10.157 38.684-0.32039 52.843-8.7334 11.802-25.942 17.886-42.043 13.13 4.3018-20.724 9.8802-30.841 18.184-43.715-20.226 20.824-26.101 60.158-30.206 93.631l-5.4968-19.258 9.7679-34.107c-6.8076-3.1539-9.6679-6.7553-11.518-10.322 5.4544-12.554 3.8168-21.498-6.8854-31.391 15.849-22.284 43.032-19.911 68.517-20.811zm-90.17 16.054c5.2434-0.04609 10.027 0.44024 13.804 1.9306 18.206 7.1841 24.389 29.725 2.1658 46.386 8.3098 16.253 13.921 33.397 18.929 52.352-2.5787 4.868-8.4689 3.05-10.862 1.1322 4.4579-12.211-14.027-67.637-29.014-80.545 5.6378 9.1069 10.527 17.471 14.521 31.099-47.309 12.331-19.469-19.059-40.79-49.555 9.5511-0.68371 21.236-2.7114 31.246-2.7993z" color="#000000" fill="#666" style="-inkscape-stroke:none"/>
  </g>
 </g>
</svg>
