<svg width="3e3" height="650" version="1.1" viewBox="0 0 793.75 171.98" xmlns="http://www.w3.org/2000/svg">
 <g transform="translate(264.18 -25.293)">
  <path id="a" d="m252.6 25.293v171.59h16.34v-70.801l90.579 70.396 9.8594-13.386-89.791-69.783 83.427-75.255-10.784-12.612-83.291 75.135v-75.28zm-255.82 0.24371c-46.07-4e-6 -83.592 38.544-83.592 85.868 0 23.662 9.3649 45.187 24.483 60.717 15.118 15.529 36.073 25.151 59.109 25.151 23.035 0 43.992-9.6217 59.11-25.151 15.118-15.529 24.483-37.055 24.483-60.717h-16.342c0 19.126-7.5164 36.337-19.696 48.848-12.179 12.511-28.936 20.234-47.556 20.234-15.666 0-29.974-5.5154-41.385-14.701l106.27-109.16-5.7763-5.9335c-15.118-15.529-36.075-25.151-59.11-25.151zm176.55 0c-46.07-4e-6 -83.593 38.544-83.593 85.868 0 23.662 9.3649 45.187 24.483 60.717 15.118 15.529 36.075 25.151 59.11 25.151s43.99-9.6217 59.109-25.151l-11.555-11.869c-12.179 12.511-28.934 20.234-47.554 20.234-18.62 0-35.376-7.7228-47.556-20.234-12.179-12.511-19.698-29.722-19.698-48.848 0-38.252 30.015-69.081 67.254-69.081 18.62 0 35.375 7.7229 47.554 20.234l11.555-11.869c-15.118-15.529-36.073-25.151-59.109-25.151zm272.65 0c-46.07-4e-6 -83.593 38.544-83.593 85.868 0 23.662 9.3668 45.187 24.485 60.717 15.118 15.529 36.073 25.151 59.109 25.151 23.035 0 43.991-9.6216 59.109-25.151 15.342-15.759 24.483-38.497 24.483-60.717 0-22.233-9.1786-44.996-24.483-60.717-15.08-15.49-36.062-25.151-59.109-25.151zm-449.2 16.786c15.665 0 29.974 5.5156 41.385 14.701l-94.325 96.892c-8.9422-11.722-14.312-26.42-14.312-42.511 0-38.252 30.013-69.081 67.252-69.081zm449.2 0c18.608 0 35.422 7.7714 47.554 20.234 11.908 12.232 19.698 31.549 19.698 48.848 0 17.311-7.742 36.567-19.698 48.848-12.179 12.511-28.934 20.234-47.554 20.234-18.62 0-35.374-7.7228-47.554-20.234-12.179-12.511-19.698-29.722-19.698-48.848 0-38.252 30.013-69.081 67.252-69.081zm-626.88-16.484a83.279 85.544 0 0 0-83.278 85.544 83.279 85.544 0 0 0 83.278 85.545 83.279 85.544 0 0 0 83.279-85.545 83.279 85.544 0 0 0-83.279-85.544zm55.051 31.974c-11.524 26.264 9.9505 38.926-0.31386 53.175-8.5554 11.876-25.413 17.999-41.186 13.213 4.2141-20.854 9.6789-31.035 17.813-43.99-19.814 20.955-25.569 60.536-29.59 94.219l-5.3848-19.379 9.5689-34.322c-6.6689-3.1737-9.4709-6.7978-11.283-10.387 5.3433-12.633 3.7391-21.633-6.7451-31.588 15.526-22.424 42.155-20.036 67.121-20.942zm-88.333 16.155c5.1365-0.04638 9.8231 0.443 13.523 1.9428 17.835 7.2292 23.892 29.911 2.1216 46.678 8.1405 16.355 13.638 33.607 18.543 52.681-2.5262 4.8986-8.2964 3.0691-10.641 1.1393 4.367-12.287-13.741-68.062-28.423-81.051 5.523 9.1641 10.312 17.581 14.225 31.294-46.345 12.409-19.072-19.179-39.959-49.866 9.3565-0.688 20.803-2.7284 30.61-2.8169z"/>
 </g>
</svg>
