<?xml version="1.0" encoding="UTF-8" standalone="no"?>
<!-- Created with Inkscape (http://www.inkscape.org/) -->

<svg
   width="810.25964mm"
   height="170.90645mm"
   viewBox="0 0 810.25964 170.90645"
   version="1.1"
   id="svg1481"
   sodipodi:docname="logo-full-dark.ink.svg"
   inkscape:version="1.2-alpha (0bd5040e63, 2022-02-05)"
   xmlns:inkscape="http://www.inkscape.org/namespaces/inkscape"
   xmlns:sodipodi="http://sodipodi.sourceforge.net/DTD/sodipodi-0.dtd"
   xmlns="http://www.w3.org/2000/svg"
   xmlns:svg="http://www.w3.org/2000/svg"
   xmlns:rdf="http://www.w3.org/1999/02/22-rdf-syntax-ns#"
   xmlns:cc="http://creativecommons.org/ns#"
   xmlns:dc="http://purl.org/dc/elements/1.1/">
  <title
     id="title664">Full ecko logo - dark version</title>
  <sodipodi:namedview
     id="namedview1483"
     pagecolor="#505050"
     bordercolor="#ffffff"
     borderopacity="1"
     inkscape:pageshadow="0"
     inkscape:pageopacity="0"
     inkscape:pagecheckerboard="1"
     inkscape:blackoutopacity="0.0"
     inkscape:document-units="mm"
     showgrid="false"
     inkscape:zoom="0.36535583"
     inkscape:cx="1530.0153"
     inkscape:cy="322.97281"
     inkscape:window-width="1920"
     inkscape:window-height="1017"
     inkscape:window-x="-8"
     inkscape:window-y="-8"
     inkscape:window-maximized="1"
     inkscape:current-layer="layer1" />
  <defs
     id="defs1478" />
  <g
     inkscape:label="Layer 1"
     inkscape:groupmode="layer"
     id="layer1"
     transform="translate(349.75694,184.87271)">
    <g
       id="g16047"
       transform="translate(-68.496109,-228.28608)">
      <path
         id="path9826"
         style="stroke-dasharray:none;stroke-miterlimit:4;stroke-width:16.6805;stroke:#000000;fill:none;"
         d="m 498.10841,183.42939 c -13.93261,13.93265 -33.18042,22.55017 -54.4409,22.55017 -21.26049,0 -40.50824,-8.61752 -54.44091,-22.55017 -13.93264,-13.93264 -22.55014,-33.18041 -22.55014,-54.4409 0,-42.520988 34.47007,-76.99107 76.99105,-76.991067 21.26048,0 40.55181,8.66107 54.4409,22.550163 13.88912,13.889088 22.55015,34.798774 22.55015,54.440904 0,19.64213 -8.61751,40.50826 -22.55015,54.4409 z m -278.32248,0 c -13.93262,13.93265 -33.18042,22.55017 -54.4409,22.55017 -21.26049,0 -40.50824,-8.61752 -54.44091,-22.55017 -13.93264,-13.93264 -22.550145,-33.18041 -22.550145,-54.4409 0,-42.520988 34.470075,-76.99107 76.991055,-76.991067 21.26048,0 40.50828,8.61752 54.4409,22.550163 M 62.118553,128.98849 c 0,21.2605 -8.617505,40.50826 -22.550146,54.4409 -13.932641,13.93265 -33.1804164,22.55017 -54.440904,22.55017 -21.260488,0 -40.508261,-8.61752 -54.440899,-22.55017 -13.932643,-13.93264 -22.550159,-33.18041 -22.550159,-54.4409 0,-42.520988 34.470067,-76.99107 76.991058,-76.991067 21.2604876,0 40.508263,8.61752 54.440904,22.550163 L -69.313396,183.42939 m 429.752536,23.44722 -107.65665,-81.453 m 0,12.82321 100.68779,-88.421849 m -98.8669,-6.411602 V 213.92992" />
      <g
         id="g1267"
         transform="translate(1.0041667e-5)"
         inkscape:label="Sygnet">
        <path
           id="path9808"
           style="fill:#000000;stroke-width:1.0393"
           d="m -111.23958,128.96718 a 85.010621,85.010621 0 0 1 -85.01062,85.01062 85.010621,85.010621 0 0 1 -85.01063,-85.01062 85.010621,85.010621 0 0 1 85.01063,-85.010609 85.010621,85.010621 0 0 1 85.01062,85.010609 z"
           inkscape:export-filename="D:\OneDrive\Obrazy\Scans\ecko3.png"
           inkscape:export-xdpi="20"
           inkscape:export-ydpi="20" />
        <path
           style="fill:#99ff38;fill-opacity:1;stroke:#000000;stroke-width:0.474456;stroke-linecap:square;stroke-linejoin:miter;stroke-miterlimit:4;stroke-dasharray:none;stroke-opacity:1;paint-order:stroke fill markers"
           d="m -206.18801,193.58635 c 2.39348,1.91775 8.28372,3.73571 10.86245,-1.13228 -5.00784,-18.95493 -10.61948,-36.09828 -18.92925,-52.35162 22.22305,-16.66162 16.04034,-39.20246 -2.16587,-46.386632 -10.98748,-4.335659 -30.49615,-0.172847 -45.05021,0.868973 21.32096,30.496049 -6.51941,61.886199 40.78955,49.555019 -3.99393,-13.62765 -8.88282,-21.99192 -14.52065,-31.09885 14.98703,12.90827 33.47184,68.33475 29.01398,80.54539 z"
           id="path9810"
           sodipodi:nodetypes="cccscccc"
           inkscape:export-filename="D:\OneDrive\Obrazy\Scans\ecko3.png"
           inkscape:export-xdpi="20"
           inkscape:export-ydpi="20" />
        <path
           style="fill:#5a912c;fill-opacity:1;stroke:#000000;stroke-width:0.474456;stroke-linecap:butt;stroke-linejoin:miter;stroke-miterlimit:4;stroke-dasharray:none;stroke-opacity:1;paint-order:markers stroke fill"
           d="m -199.93706,172.36338 5.49715,19.25782 c 4.10508,-33.47344 9.97913,-72.80769 30.20559,-93.631621 -8.30366,12.874021 -13.88184,22.991491 -18.18362,43.715111 16.10135,4.75596 33.30939,-1.32868 42.04278,-13.13055 10.47785,-14.15924 -11.44295,-26.74201 0.32026,-52.842435 -25.48534,0.900065 -52.66812,-1.473554 -68.51725,20.810786 10.70219,9.892769 12.33994,18.837089 6.88553,31.391139 1.84973,3.56703 4.70984,7.16848 11.5174,10.32236 z"
           id="path9812"
           sodipodi:nodetypes="ccccaccccc"
           inkscape:export-filename="D:\OneDrive\Obrazy\Scans\ecko3.png"
           inkscape:export-xdpi="20"
           inkscape:export-ydpi="20" />
      </g>
    </g>
  </g>
  <metadata
     id="metadata662">
    <rdf:RDF>
      <cc:Work
         rdf:about="">
        <dc:title>Full ecko logo - dark version</dc:title>
      </cc:Work>
    </rdf:RDF>
  </metadata>
</svg>
