<?xml version="1.0" encoding="UTF-8" standalone="no"?>
<!-- Created with Inkscape (http://www.inkscape.org/) -->

<svg
   width="810.7793mm"
   height="171.08398mm"
   viewBox="0 0 810.7793 171.08398"
   version="1.1"
   id="svg2523"
   inkscape:version="1.2-alpha (0bd5040e63, 2022-02-05)"
   sodipodi:docname="logo-full-light.ink.svg"
   xmlns:inkscape="http://www.inkscape.org/namespaces/inkscape"
   xmlns:sodipodi="http://sodipodi.sourceforge.net/DTD/sodipodi-0.dtd"
   xmlns="http://www.w3.org/2000/svg"
   xmlns:svg="http://www.w3.org/2000/svg">
  <sodipodi:namedview
     id="namedview2525"
     pagecolor="#505050"
     bordercolor="#ffffff"
     borderopacity="1"
     inkscape:pageshadow="0"
     inkscape:pageopacity="0"
     inkscape:pagecheckerboard="1"
     inkscape:blackoutopacity="0.0"
     inkscape:document-units="mm"
     showgrid="false"
     inkscape:zoom="0.2102413"
     inkscape:cx="302.0339"
     inkscape:cy="456.61818"
     inkscape:window-width="1920"
     inkscape:window-height="1017"
     inkscape:window-x="-8"
     inkscape:window-y="-8"
     inkscape:window-maximized="1"
     inkscape:current-layer="layer1" />
  <defs
     id="defs2520" />
  <g
     inkscape:label="Layer 1"
     inkscape:groupmode="layer"
     id="layer1"
     transform="translate(157.47016,-27.720722)">
    <g
       id="g16063"
       transform="translate(124.31109,-15.69334)">
      <g
         id="path16049">
        <path
           style="color:#000000;fill:#ffffff;stroke-width:1.0393;-inkscape-stroke:none"
           d="m -111.23958,128.96718 a 85.010621,85.010621 0 0 1 -85.01062,85.01062 85.010621,85.010621 0 0 1 -85.01063,-85.01062 85.010621,85.010621 0 0 1 85.01063,-85.010609 85.010621,85.010621 0 0 1 85.01062,85.010609 z"
           id="path6896" />
        <path
           style="color:#000000;fill:#ffffff;-inkscape-stroke:none"
           d="m -196.25,43.4375 c -47.23086,-5e-6 -85.53124,38.298436 -85.53125,85.5293 0,47.23086 38.30038,85.53125 85.53125,85.53125 47.23086,0 85.5293,-38.30039 85.5293,-85.53125 -1e-5,-47.23086 -38.29844,-85.529299 -85.5293,-85.5293 z m 0,1.039062 c 46.66918,10e-7 84.49023,37.821057 84.49023,84.490238 0,46.66918 -37.82105,84.49218 -84.49023,84.49218 -46.66919,1e-5 -84.49023,-37.823 -84.49023,-84.49218 0,-46.669185 37.82105,-84.490242 84.49023,-84.490238 z"
           id="path6898" />
      </g>
      <path
         style="color:#000000;fill:#ffffff;-inkscape-stroke:none"
         d="M 246.26367,43.414062 V 213.92969 h 16.67969 V 143.57031 L 355.40625,213.52734 365.4707,200.22461 273.8125,130.87695 358.97461,56.091797 347.9668,43.558594 262.94336,118.22461 V 43.414062 Z"
         id="path16051" />
      <path
         style="fill:#99ff38;fill-opacity:1;stroke:none;stroke-width:0.474456;stroke-linecap:square;stroke-linejoin:miter;stroke-miterlimit:4;stroke-dasharray:none;stroke-opacity:1;paint-order:stroke fill markers"
         d="m -206.18801,193.58635 c 2.39348,1.91775 8.28372,3.73571 10.86245,-1.13228 -5.00784,-18.95493 -10.61948,-36.09828 -18.92925,-52.35162 22.22305,-16.66162 16.04034,-39.20246 -2.16587,-46.386632 -10.98748,-4.335659 -30.49615,-0.172847 -45.05021,0.868973 21.32096,30.496049 -6.51941,61.886199 40.78955,49.555019 -3.99393,-13.62765 -8.88282,-21.99192 -14.52065,-31.09885 14.98703,12.90827 33.47184,68.33475 29.01398,80.54539 z"
         id="path7354"
         sodipodi:nodetypes="cccscccc"
         inkscape:export-filename="D:\OneDrive\Obrazy\Scans\ecko3.png"
         inkscape:export-xdpi="20"
         inkscape:export-ydpi="20" />
      <path
         style="fill:#5a912c;fill-opacity:1;stroke:none;stroke-width:0.474456;stroke-linecap:butt;stroke-linejoin:miter;stroke-miterlimit:4;stroke-dasharray:none;stroke-opacity:1;paint-order:markers stroke fill"
         d="m -199.93706,172.36338 5.49715,19.25782 c 4.10508,-33.47344 9.97913,-72.80769 30.20559,-93.631621 -8.30366,12.874021 -13.88184,22.991491 -18.18362,43.715111 16.10135,4.75596 33.30939,-1.32868 42.04278,-13.13055 10.47785,-14.15924 -11.44295,-26.74201 0.32026,-52.842435 -25.48534,0.900065 -52.66812,-1.473554 -68.51725,20.810786 10.70219,9.892769 12.33994,18.837089 6.88553,31.391139 1.84973,3.56703 4.70984,7.16848 11.5174,10.32236 z"
         id="path7357"
         sodipodi:nodetypes="ccccaccccc"
         inkscape:export-filename="D:\OneDrive\Obrazy\Scans\ecko3.png"
         inkscape:export-xdpi="20"
         inkscape:export-ydpi="20" />
      <path
         style="color:#000000;fill:#ffffff;-inkscape-stroke:none"
         d="m -14.873047,43.65625 c -47.028351,-3e-6 -85.330083,38.303685 -85.330083,85.33203 0,23.51417 9.559696,44.9054 24.992193,60.33789 15.432491,15.43251 36.823722,24.99414 60.33789,24.99414 23.5141683,0 44.90735,-9.56163 60.339844,-24.99414 15.432494,-15.43249 24.992187,-36.82371 24.992187,-60.33789 h -16.68164 c 0,19.00678 -7.672709,36.11021 -20.105469,48.54297 -12.43276,12.43277 -29.5381574,20.10742 -48.544922,20.10742 -15.991388,0 -30.597395,-5.48102 -42.246094,-14.60937 L 51.363281,74.546875 45.466797,68.650391 C 30.034303,53.217895 8.6411213,43.65625 -14.873047,43.65625 Z m 0,16.681641 c 15.9912359,0 30.597446,5.481185 42.246094,14.609375 l -96.287109,96.287104 c -9.128189,-11.64864 -14.609375,-26.25485 -14.609375,-42.24609 0,-38.013544 30.636844,-68.650392 68.65039,-68.650389 z"
         id="path16057" />
      <path
         style="color:#000000;fill:#ffffff;-inkscape-stroke:none"
         d="m 165.3457,43.65625 c -47.02834,-3e-6 -85.332028,38.303684 -85.332028,85.33203 0,23.51417 9.559693,44.9054 24.992188,60.33789 15.43251,15.4325 36.82567,24.99414 60.33984,24.99414 23.51416,0 44.90541,-9.56163 60.33789,-24.99414 l -11.79492,-11.79492 c -12.43273,12.43276 -29.53621,20.10742 -48.54297,20.10742 -19.00676,0 -36.11212,-7.67464 -48.54492,-20.10742 -12.43276,-12.43276 -20.107421,-29.5362 -20.107421,-48.54297 0,-38.013543 30.638811,-68.650392 68.652341,-68.650389 19.00676,0 36.11024,7.674668 48.54297,20.107421 L 225.68359,68.650391 C 210.25111,53.217886 188.85986,43.65625 165.3457,43.65625 Z"
         id="path16059" />
      <path
         style="color:#000000;fill:#ffffff;-inkscape-stroke:none"
         d="m 443.66797,43.65625 c -47.02834,-3e-6 -85.33203,38.303685 -85.33203,85.33203 0,23.51417 9.56164,44.9054 24.99414,60.33789 15.43251,15.4325 36.82372,24.99414 60.33789,24.99414 23.51416,0 44.90542,-9.56162 60.33789,-24.99414 15.66083,-15.66083 24.99219,-38.25639 24.99219,-60.33789 0,-22.09381 -9.36945,-44.715182 -24.99219,-60.337889 C 488.61221,53.256741 467.19352,43.65625 443.66797,43.65625 Z m 0,16.681641 c 18.99537,0 36.15846,7.722913 48.54297,20.107421 12.15547,12.155441 20.10742,31.352568 20.10742,48.542968 0,17.20273 -7.903,36.33855 -20.10742,48.54297 -12.43272,12.43276 -29.53622,20.10742 -48.54297,20.10742 -19.00677,0 -36.11017,-7.67464 -48.54297,-20.10742 -12.43276,-12.43276 -20.10742,-29.5362 -20.10742,-48.54297 0,-38.013543 30.63685,-68.650392 68.65039,-68.650389 z"
         id="path16061" />
    </g>
  </g>
</svg>
