<?xml version="1.0" encoding="UTF-8" standalone="no"?>
<!-- Created with Inkscape (http://www.inkscape.org/) -->

<svg
   width="810.25867mm"
   height="170.90625mm"
   viewBox="0 0 810.25867 170.90625"
   version="1.1"
   id="svg3567"
   inkscape:version="1.2-alpha (0bd5040e63, 2022-02-05)"
   sodipodi:docname="logo-full-monochrome.ink.svg"
   xmlns:inkscape="http://www.inkscape.org/namespaces/inkscape"
   xmlns:sodipodi="http://sodipodi.sourceforge.net/DTD/sodipodi-0.dtd"
   xmlns="http://www.w3.org/2000/svg"
   xmlns:svg="http://www.w3.org/2000/svg">
  <sodipodi:namedview
     id="namedview3569"
     pagecolor="#505050"
     bordercolor="#ffffff"
     borderopacity="1"
     inkscape:pageshadow="0"
     inkscape:pageopacity="0"
     inkscape:pagecheckerboard="1"
     inkscape:blackoutopacity="0.0"
     inkscape:document-units="mm"
     showgrid="false"
     inkscape:zoom="0.2102413"
     inkscape:cx="1393.6367"
     inkscape:cy="466.13106"
     inkscape:window-width="1920"
     inkscape:window-height="1017"
     inkscape:window-x="-8"
     inkscape:window-y="-8"
     inkscape:window-maximized="1"
     inkscape:current-layer="layer1" />
  <defs
     id="defs3564" />
  <g
     inkscape:label="Layer 1"
     inkscape:groupmode="layer"
     id="layer1"
     transform="translate(264.18018,-25.292642)">
    <g
       id="g16151"
       transform="translate(17.080438,-18.12142)">
      <path
         id="path16149"
         style="color:#000000;fill:#666666;-inkscape-stroke:none"
         d="M 246.26367,43.414062 V 213.92969 h 16.67969 V 143.57031 L 355.40625,213.52734 365.4707,200.22461 273.8125,130.87695 358.97461,56.091797 347.9668,43.558594 262.94336,118.22461 V 43.414062 Z M -14.873047,43.65625 c -47.028351,-3e-6 -85.330083,38.303685 -85.330083,85.33203 0,23.51417 9.559696,44.9054 24.992193,60.33789 15.432491,15.43251 36.823722,24.99414 60.33789,24.99414 23.5141683,0 44.90735,-9.56163 60.339844,-24.99414 15.432494,-15.43249 24.992187,-36.82371 24.992187,-60.33789 h -16.68164 c 0,19.00678 -7.672709,36.11021 -20.105469,48.54297 -12.43276,12.43277 -29.5381574,20.10742 -48.544922,20.10742 -15.991388,0 -30.597395,-5.48102 -42.246094,-14.60937 L 51.363281,74.546875 45.466797,68.650391 C 30.034303,53.217895 8.6411213,43.65625 -14.873047,43.65625 Z m 180.218747,0 c -47.02834,-3e-6 -85.332028,38.303684 -85.332028,85.33203 0,23.51417 9.559693,44.9054 24.992188,60.33789 15.43251,15.4325 36.82567,24.99414 60.33984,24.99414 23.51416,0 44.90541,-9.56163 60.33789,-24.99414 l -11.79492,-11.79492 c -12.43273,12.43276 -29.53621,20.10742 -48.54297,20.10742 -19.00676,0 -36.11212,-7.67464 -48.54492,-20.10742 -12.43276,-12.43276 -20.107421,-29.5362 -20.107421,-48.54297 0,-38.013543 30.638811,-68.650392 68.652341,-68.650389 19.00676,0 36.11024,7.674668 48.54297,20.107421 L 225.68359,68.650391 C 210.25111,53.217886 188.85986,43.65625 165.3457,43.65625 Z m 278.32227,0 c -47.02834,-3e-6 -85.33203,38.303685 -85.33203,85.33203 0,23.51417 9.56164,44.9054 24.99414,60.33789 15.43251,15.4325 36.82372,24.99414 60.33789,24.99414 23.51416,0 44.90542,-9.56162 60.33789,-24.99414 15.66083,-15.66083 24.99219,-38.25639 24.99219,-60.33789 0,-22.09381 -9.36945,-44.715182 -24.99219,-60.337889 C 488.61221,53.256741 467.19352,43.65625 443.66797,43.65625 Z M -14.873047,60.337891 c 15.9912359,0 30.597446,5.481185 42.246094,14.609375 l -96.287109,96.287104 c -9.128189,-11.64864 -14.609375,-26.25485 -14.609375,-42.24609 0,-38.013544 30.636844,-68.650392 68.65039,-68.650389 z m 458.541017,0 c 18.99537,0 36.15846,7.722913 48.54297,20.107421 12.15547,12.155441 20.10742,31.352568 20.10742,48.542968 0,17.20273 -7.903,36.33855 -20.10742,48.54297 -12.43272,12.43276 -29.53622,20.10742 -48.54297,20.10742 -19.00677,0 -36.11017,-7.67464 -48.54297,-20.10742 -12.43276,-12.43276 -20.10742,-29.5362 -20.10742,-48.54297 0,-38.013543 30.63685,-68.650392 68.65039,-68.650389 z M -196.2503,43.956752 a 85.010619,85.010619 0 0 0 -85.01032,85.010328 85.010619,85.010619 0 0 0 85.01032,85.01084 85.010619,85.010619 0 0 0 85.01083,-85.01084 85.010619,85.010619 0 0 0 -85.01083,-85.010328 z m 56.19553,31.774817 c -11.76321,26.100431 10.15746,38.683541 -0.32039,52.842771 -8.73339,11.80187 -25.94156,17.88641 -42.04291,13.13047 4.30178,-20.72362 9.88024,-30.84115 18.1839,-43.715168 -20.22646,20.823928 -26.10083,60.158048 -30.20591,93.631488 l -5.49682,-19.25772 9.76788,-34.10749 c -6.80756,-3.15389 -9.66791,-6.75534 -11.51764,-10.32238 5.45441,-12.55405 3.81682,-21.49808 -6.88537,-31.390851 15.84913,-22.28432 43.03193,-19.91106 68.51726,-20.81112 z m -90.1702,16.053806 c 5.24337,-0.04609 10.02738,0.44024 13.80432,1.930638 18.20621,7.184147 24.38881,29.724697 2.16576,46.386297 8.30977,16.25336 13.92124,33.39693 18.92908,52.35184 -2.57873,4.86799 -8.46891,3.04998 -10.86239,1.13223 4.45786,-12.21063 -14.0267,-67.63719 -29.01373,-80.54547 5.63783,9.10694 10.52663,17.47124 14.52056,31.09889 -47.30896,12.33117 -19.4688,-19.05907 -40.78976,-49.555107 9.55111,-0.68371 21.23609,-2.711371 31.24616,-2.799318 z" />
    </g>
  </g>
</svg>
