<?xml version="1.0" encoding="UTF-8" standalone="no"?>
<!-- Created with Inkscape (http://www.inkscape.org/) -->

<svg
   width="3000"
   height="650"
   viewBox="0 0 793.75031 171.97923"
   version="1.1"
   id="svg3567"
   inkscape:version="1.2-alpha (0bd5040e63, 2022-02-05)"
   sodipodi:docname="logo-full-outline.ink.svg"
   xmlns:inkscape="http://www.inkscape.org/namespaces/inkscape"
   xmlns:sodipodi="http://sodipodi.sourceforge.net/DTD/sodipodi-0.dtd"
   xmlns="http://www.w3.org/2000/svg"
   xmlns:svg="http://www.w3.org/2000/svg">
  <sodipodi:namedview
     id="namedview3569"
     pagecolor="#505050"
     bordercolor="#ffffff"
     borderopacity="1"
     inkscape:pageshadow="0"
     inkscape:pageopacity="0"
     inkscape:pagecheckerboard="1"
     inkscape:blackoutopacity="0.0"
     inkscape:document-units="px"
     showgrid="false"
     inkscape:zoom="0.608"
     inkscape:cx="1544.4079"
     inkscape:cy="496.71053"
     inkscape:window-width="1920"
     inkscape:window-height="1017"
     inkscape:window-x="-8"
     inkscape:window-y="-8"
     inkscape:window-maximized="1"
     inkscape:current-layer="layer1" />
  <defs
     id="defs3564" />
  <g
     inkscape:label="Layer 1"
     inkscape:groupmode="layer"
     id="layer1"
     transform="translate(264.18018,-25.292642)">
    <path
       id="outline"
       d="M 252.59622,25.292642 V 196.8788 h 16.33986 v -70.80111 l 90.57903,70.39623 9.8594,-13.38624 -89.79074,-69.78304 83.427,-75.25467 -10.78354,-12.611889 -83.29115,75.134789 V 25.292642 Z M -3.2200429,25.536351 c -46.0701861,-4e-6 -83.5915511,38.544163 -83.5915511,85.867759 0,23.6618 9.364925,45.18733 24.482997,60.7167 15.118067,15.5294 36.073469,25.15106 59.1085541,25.15106 23.0350859,0 43.9923989,-9.62166 59.1104679,-25.15106 15.118069,-15.52937 24.482991,-37.05489 24.482991,-60.7167 H 64.031651 c 0,19.12611 -7.516383,36.33692 -19.695836,48.84773 -12.179452,12.51083 -28.936341,20.23366 -47.5558579,20.23366 -15.6655761,0 -29.9739971,-5.51543 -41.3853631,-14.70109 L 61.666773,56.620913 55.890425,50.68741 C 40.772356,35.158025 19.815043,25.536351 -3.2200429,25.536351 Z m 176.5469329,0 c -46.07017,-4e-6 -83.593455,38.544162 -83.593455,85.867759 0,23.6618 9.364919,45.18733 24.482995,60.7167 15.11808,15.52939 36.07538,25.15106 59.11046,25.15106 23.03508,0 43.9905,-9.62166 59.10856,-25.15106 l -11.55461,-11.86897 c -12.17942,12.51082 -28.93443,20.23366 -47.55395,20.23366 -18.61951,0 -35.37636,-7.72282 -47.55585,-20.23366 -12.17946,-12.51081 -19.69775,-29.72163 -19.69775,-48.84773 0,-38.252198 30.01457,-69.081391 67.2536,-69.081388 18.61952,0 35.37453,7.722851 47.55395,20.233659 L 232.43545,50.68741 C 217.31739,35.158016 196.36197,25.536351 173.32689,25.536351 Z m 272.65168,0 c -46.07018,-4e-6 -83.59346,38.544163 -83.59346,85.867759 0,23.6618 9.36683,45.18733 24.48491,60.7167 15.11808,15.52939 36.07346,25.15106 59.10855,25.15106 23.03508,0 43.99051,-9.62165 59.10855,-25.15106 15.34176,-15.75915 24.483,-38.49657 24.483,-60.7167 0,-22.232518 -9.17856,-44.995911 -24.483,-60.7167 C 490.00711,35.197115 469.02481,25.536351 445.97857,25.536351 Z M -3.2200429,42.322722 c 15.6654269,0 29.9740479,5.515597 41.3853639,14.701096 l -94.325336,96.891612 c -8.94221,-11.72177 -14.311721,-26.41968 -14.311721,-42.51132 0,-38.252199 30.012643,-69.081391 67.2516931,-69.081388 z m 449.1986129,0 c 18.60835,0 35.42176,7.771399 47.55395,20.233659 11.90781,12.231756 19.69774,31.549406 19.69774,48.847729 0,17.31073 -7.74198,36.56669 -19.69774,48.84773 -12.17942,12.51082 -28.93445,20.23366 -47.55395,20.23366 -18.61952,0 -35.37445,-7.72282 -47.55395,-20.23366 -12.17945,-12.51081 -19.69774,-29.72163 -19.69774,-48.84773 0,-38.252198 30.01264,-69.081391 67.25169,-69.081388 z M -180.90188,25.838739 a 83.278596,85.544332 0 0 0 -83.2783,85.544041 83.278596,85.544332 0 0 0 83.2783,85.54455 83.278596,85.544332 0 0 0 83.278803,-85.54455 83.278596,85.544332 0 0 0 -83.278803,-85.544041 z m 55.05059,31.974306 c -11.52354,26.264294 9.95051,38.926404 -0.31386,53.174525 -8.55545,11.87597 -25.41302,17.99871 -41.18632,13.21291 4.21414,-20.85373 9.67894,-31.034778 17.81342,-43.989622 -19.81436,20.954662 -25.56905,60.535732 -29.59049,94.219322 l -5.38483,-19.37862 9.56887,-34.32162 c -6.66886,-3.17369 -9.47093,-6.79776 -11.28298,-10.38719 5.34328,-12.632867 3.73906,-21.633049 -6.74508,-31.587929 15.52621,-22.424225 42.15519,-20.036066 67.12127,-20.941776 z m -88.33305,16.154595 c 5.13654,-0.04638 9.82308,0.443004 13.52307,1.942759 17.83527,7.22925 23.8919,29.911311 2.12163,46.677521 8.14047,16.3554 13.63761,33.6066 18.54342,52.68051 -2.52619,4.89856 -8.29637,3.06913 -10.64108,1.13934 4.36703,-12.28729 -13.74092,-68.06183 -28.4226,-81.051149 5.52296,9.164119 10.31216,17.580929 14.22472,31.294139 -46.34508,12.40858 -19.07214,-19.17873 -39.95871,-49.866228 9.35652,-0.688002 20.80343,-2.728393 30.60955,-2.816892 z"
       style="stroke-width:0.992862" />
  </g>
</svg>
