<?xml version="1.0" encoding="UTF-8" standalone="no"?>
<svg
   viewBox="0 0 216.4144 232.00976"
   version="1.1"
   id="svg4"
   sodipodi:docname="logo_transparent_white.svg"
   inkscape:version="1.1 (c68e22c387, 2021-05-23)"
   xmlns:inkscape="http://www.inkscape.org/namespaces/inkscape"
   xmlns:sodipodi="http://sodipodi.sourceforge.net/DTD/sodipodi-0.dtd"
   xmlns="http://www.w3.org/2000/svg"
   xmlns:svg="http://www.w3.org/2000/svg">
  <defs
     id="defs8" />
  <sodipodi:namedview
     id="namedview6"
     pagecolor="#505050"
     bordercolor="#ffffff"
     borderopacity="1"
     inkscape:pageshadow="0"
     inkscape:pageopacity="0"
     inkscape:pagecheckerboard="1"
     showgrid="false"
     inkscape:zoom="2.5357245"
     inkscape:cx="119.68966"
     inkscape:cy="126.39386"
     inkscape:window-width="1920"
     inkscape:window-height="1017"
     inkscape:window-x="-8"
     inkscape:window-y="-8"
     inkscape:window-maximized="1"
     inkscape:current-layer="svg4" />
  <path
     id="path16137"
     style="fill:#ffffff;fill-opacity:1;stroke:#666666;stroke-width:1.31037;stroke-opacity:1"
     d="M 108.20686,8.8223334 A 107.18259,107.18259 0 0 0 1.0246647,116.00457 107.18259,107.18259 0 0 0 108.20686,223.18743 107.18259,107.18259 0 0 0 215.38973,116.00457 107.18259,107.18259 0 0 0 108.20686,8.8223334 Z M 179.059,48.884472 c -14.83123,32.907798 12.80666,48.772754 -0.40396,66.624908 -11.01119,14.87997 -32.70749,22.55145 -53.0083,16.5551 5.42374,-26.12864 12.45716,-38.884974 22.92652,-55.116714 -25.5018,26.255094 -32.90829,75.848114 -38.08403,118.051904 l -6.93047,-24.28041 12.31548,-43.00321 c -8.58307,-3.97646 -12.18945,-8.51723 -14.52161,-13.01459 6.877,-15.828336 4.8123,-27.105089 -8.681166,-39.578033 C 112.65427,47.027041 146.92672,50.019281 179.059,48.884472 Z M 65.371129,69.125338 c 6.610914,-0.05811 12.64266,0.55506 17.404689,2.434175 22.954642,9.057879 30.749752,37.477317 2.730618,58.484507 10.477081,20.49246 17.552084,42.10731 23.866044,66.00593 -3.2513,6.13763 -10.677711,3.84546 -13.695447,1.42753 C 101.29757,182.08215 77.991968,112.19956 59.09611,95.92462 66.204367,107.40677 72.368234,117.95259 77.403838,135.13454 17.756032,150.68185 52.857302,111.10459 25.975537,72.654757 38.0177,71.792727 52.75029,69.236223 65.371129,69.125338 Z" />
</svg>
