<?xml version="1.0" encoding="UTF-8"?>
<svg version="1.1" viewBox="0 0 216.41 232.01" xmlns="http://www.w3.org/2000/svg">
 <path d="m108.21 9.2338a106.77 106.77 0 0 0-106.77 106.77 106.77 106.77 0 0 0 106.77 106.77 106.77 106.77 0 0 0 106.77-106.77 106.77 106.77 0 0 0-106.77-106.77zm70.58 39.908c-14.774 32.781 12.758 48.586-0.4024 66.369-10.969 14.823-32.582 22.465-52.805 16.492 5.4029-26.028 12.409-38.736 22.839-54.905-25.404 26.154-32.782 75.557-37.938 117.6l-6.9039-24.187 12.268-42.838c-8.5501-3.9612-12.143-8.4845-14.466-12.965 6.8506-15.768 4.7938-27.001-8.6478-39.426 19.906-27.989 54.047-25.008 86.056-26.138zm-113.25 20.163c6.5855-0.05789 12.594 0.55293 17.338 2.4248 22.867 9.0231 30.632 37.333 2.7201 58.26 10.437 20.414 17.485 41.946 23.774 65.753-3.2388 6.1141-10.637 3.8307-13.643 1.422 5.599-15.336-17.617-84.951-36.44-101.16 7.081 11.438 13.221 21.943 18.237 39.059-59.419 15.488-24.452-23.938-51.231-62.24 11.996-0.85872 26.672-3.4054 39.244-3.5159z" stroke="#000" stroke-width="1.3053"/>
</svg>
