<?xml version="1.0" encoding="UTF-8"?>
<svg version="1.1" viewBox="0 0 216.41 232.01" xmlns="http://www.w3.org/2000/svg">
 <g transform="matrix(.95725 0 0 .95725 -1.2691 20.496)">
  <path d="m227.22 99.774a112.85 112.85 0 0 1-112.85 112.85 112.85 112.85 0 0 1-112.85-112.85 112.85 112.85 0 0 1 112.85-112.85 112.85 112.85 0 0 1 112.85 112.85z" stroke-width="1.3797"/>
  <path d="m101.17 185.56c3.1774 2.5458 10.997 4.9592 14.42-1.5031-6.648-25.163-14.098-47.921-25.129-69.498 29.501-22.119 21.294-52.042-2.8752-61.579-14.586-5.7557-40.484-0.22946-59.805 1.1536 28.304 40.484-8.6546 82.155 54.149 65.785-5.302-18.091-11.792-29.195-19.276-41.284 19.896 17.136 44.434 90.715 38.517 106.93z" fill="#99ff38" stroke="#000" stroke-linecap="square" stroke-width=".62985" style="paint-order:stroke fill markers"/>
  <path d="m109.47 157.38 7.2976 25.565c5.4496-44.436 13.247-96.653 40.098-124.3-11.023 17.09-18.428 30.522-24.139 58.032 21.375 6.3136 44.219-1.7638 55.812-17.431 13.91-18.797-15.191-35.5 0.42515-70.149-33.832 1.1948-69.918-1.9562-90.958 27.627 14.207 13.133 16.381 25.007 9.1406 41.672 2.4556 4.7353 6.2524 9.5163 15.29 13.703z" fill="#5a912c" stroke="#000" stroke-width=".62985" style="paint-order:markers stroke fill"/>
 </g>
</svg>
