<svg xmlns="http://www.w3.org/2000/svg">
<symbol id="svg-logo" viewBox="0 0 215 215">
<path d="m107.5 0.65312a106.85 106.85 0 0 0-106.85 106.85 106.85 106.85 0 0 0 106.85 106.85 106.85 106.85 0 0 0 106.85-106.85 106.85 106.85 0 0 0-106.85-106.85zm70.631 39.937c-14.785 32.805 12.767 48.621-0.40268 66.417-10.977 14.834-32.605 22.481-52.843 16.504 5.4068-26.047 12.418-38.764 22.855-54.945-25.422 26.173-32.806 75.611-37.965 117.68l-6.9089-24.204 12.277-42.869c-8.5563-3.9641-12.152-8.4906-14.476-12.974 6.8555-15.779 4.7972-27.02-8.654-39.454 19.92-28.009 54.086-25.026 86.118-26.157zm-113.33 20.178c6.5902-0.05793 12.603 0.55333 17.35 2.4265 22.883 9.0296 30.654 37.36 2.7221 58.302 10.445 20.429 17.498 41.976 23.791 65.8-3.2411 6.1185-10.645 3.8335-13.653 1.423 5.603-15.347-17.63-85.012-36.466-101.23 7.0861 11.446 13.231 21.959 18.25 39.087-59.462 15.499-24.47-23.955-51.268-62.285 12.005-0.85934 26.691-3.4079 39.272-3.5184z"/>
</symbol>
</svg>
